#!OML:ASF I:\Actors\actors\Patient Classification 1\Patient 1\Session 1\Subject1.ASF
:FULLY-SPECIFIED
:DEGREES
399
root -0.93261 17.691 6.81313 28.0326 -21.5897 -10.3243
lowerback 18.6407 0.243513 2.21585
upperback -1.1179 0.519392 -2.44438
thorax -11.7161 0.00163547 -4.12469
lowerneck -16.5466 5.15897 6.61633
upperneck 7.67892 5.97638 -4.27909
head 5.31355 2.82486 -1.84179
rclavicle 2.38542e-015 3.97569e-014
rhumerus 17.601 52.2987 -77.8258
rradius 57.6811
rwrist -7.24875
rhand -19.2938 -34.2779
rfingers 7.12502
rthumb 7.0215 -64.1415
lclavicle 2.38542e-015 3.97569e-014
lhumerus 16.8237 14.4299 101.88
lradius 58.9198
lwrist 51.8633
lhand -26.4904 -7.97677
lfingers 7.12502
lthumb 0.0720964 22.003
rfemur -32.3947 22.8182 19.2717
rtibia 6.36512
rfoot -1.75333 -3.1163
rtoes -1.83405
lfemur -18.1952 -57.9402 8.6541
ltibia -3.96989
lfoot -95.635 53.9936
ltoes 46.5559
400
root -0.900689 17.6887 6.83006 27.2117 -21.6763 -10.0487
lowerback 18.1549 0.219063 2.43675
upperback -1.56056 0.556123 -2.23792
thorax -11.9356 0.0033371 -4.03034
lowerneck -16.0116 5.1666 6.83702
upperneck 8.02752 6.04185 -4.74035
head 5.36398 2.83798 -2.02294
rclavicle 7.15625e-015 3.02153e-014
rhumerus 17.5918 50.8929 -76.583
rradius 61.8641
rwrist -7.85389
rhand -19.645 -34.5112
rfingers 7.12502
rthumb 6.68251 -64.3858
lclavicle 7.15625e-015 3.02153e-014
lhumerus 16.604 8.93029 99.9014
lradius 62.8585
lwrist 49.2204
lhand -25.709 -7.70675
lfingers 7.12502
lthumb 0.826813 22.2714
rfemur -31.756 22.6951 19.2168
rtibia 6.84721
rfoot -2.20623 -3.02606
rtoes -2.58933
lfemur -17.216 -58.5096 7.29341
ltibia -3.74954
lfoot -95.9438 54.9453
ltoes 45.7735
401
root -0.867583 17.6874 6.85177 26.406 -21.7208 -9.7956
lowerback 17.6003 0.193856 2.59806
upperback -2.03081 0.583384 -1.97174
thorax -12.1475 0.00663585 -3.83095
lowerneck -15.4188 5.17134 7.10972
upperneck 8.43649 6.11735 -5.31914
head 5.43006 2.85089 -2.24964
rclavicle -2.3059e-014 3.33958e-014
rhumerus 17.6792 49.191 -75.23
rradius 65.971
rwrist -8.37611
rhand -19.6543 -35.0288
rfingers 7.12502
rthumb 6.67359 -64.9036
lclavicle -2.3059e-014 3.33958e-014
lhumerus 16.95 3.78805 98.0827
lradius 66.4626
lwrist 46.121
lhand -25.0827 -6.83754
lfingers 7.12502
lthumb 1.4317 23.1374
rfemur -31.1474 22.5679 19.1768
rtibia 7.41128
rfoot -2.70454 -2.96884
rtoes -2.94854
lfemur -15.4277 -57.993 5.13942
ltibia -3.87247
lfoot -94.2275 55.6376
ltoes 45.2674
402
root -0.835179 17.687 6.8799 25.5608 -21.7262 -9.51196
lowerback 17.0079 0.179793 2.65279
upperback -2.51867 0.603979 -1.67535
thorax -12.3578 0.0155147 -3.53434
lowerneck -14.9385 5.20551 7.47014
upperneck 9.10425 6.23912 -6.02645
head 5.60616 2.87849 -2.52372
rclavicle 2.38542e-015 -2.22639e-014
rhumerus 17.1532 46.6675 -74.6658
rradius 70.5024
rwrist -11.4726
rhand -19.3853 -35.6091
rfingers 7.12502
rthumb 6.93324 -65.4756
lclavicle 2.38542e-015 -2.22639e-014
lhumerus 17.6137 -1.9202 96.0187
lradius 70.1856
lwrist 44.9635
lhand -25.5256 -7.74511
lfingers 7.12502
lthumb 1.00398 22.2323
rfemur -30.5166 22.6142 19.0214
rtibia 8.00639
rfoot -3.26528 -3.12485
rtoes -2.92051
lfemur -13.6228 -57.2859 2.91346
ltibia -3.95568
lfoot -92.0853 56.2779
ltoes 44.7455
403
root -0.808635 17.6883 6.91292 24.6668 -21.738 -9.32152
lowerback 16.4139 0.238243 2.61546
upperback -3.01178 0.712531 -1.28775
thorax -12.5671 0.0772289 -3.1073
lowerneck -14.4241 5.19249 7.67557
upperneck 9.91729 6.33658 -6.6572
head 5.81368 2.8941 -2.75337
rclavicle 9.93923e-015 -5.725e-014
rhumerus 16.4786 44.5316 -73.8975
rradius 74.6448
rwrist -13.3635
rhand -21.6787 -35.4257
rfingers 7.12502
rthumb 4.71898 -65.3532
lclavicle 9.93923e-015 -5.725e-014
lhumerus 18.7534 -7.53907 93.9456
lradius 73.2425
lwrist 41.8698
lhand -24.821 -9.02028
lfingers 7.12502
lthumb 1.68449 20.9528
rfemur -29.7127 22.7297 19.0334
rtibia 8.53966
rfoot -3.81757 -3.22584
rtoes -3.03805
lfemur -11.6047 -56.3279 0.621839
ltibia -4.09159
lfoot -89.5426 56.9987
ltoes 44.0469
404
root -0.792118 17.6927 6.94997 23.7347 -21.9051 -9.22069
lowerback 15.7505 0.386713 2.27574
upperback -3.47367 0.891168 -0.790268
thorax -12.6999 0.203663 -2.40237
lowerneck -13.782 5.13578 7.70853
upperneck 10.7047 6.41151 -7.18983
head 5.981 2.90096 -2.93095
rclavicle 2.94201e-014 1.59028e-015
rhumerus 15.7788 41.8124 -73.2035
rradius 78.0884
rwrist -10.1067
rhand -20.7161 -35.3093
rfingers 7.12502
rthumb 5.64845 -65.214
lclavicle 2.94201e-014 1.59028e-015
lhumerus 20.4738 -12.9328 91.7201
lradius 75.7956
lwrist 38.2289
lhand -23.6855 -10.5896
lfingers 7.12502
lthumb 2.78109 19.372
rfemur -28.7791 23.1035 19.1595
rtibia 9.0587
rfoot -4.43956 -3.34699
rtoes -3.46969
lfemur -9.27446 -55.8231 -1.70034
ltibia -4.36184
lfoot -88.0898 57.6556
ltoes 43.4303
